HIERARCHY
ROOT hip
{
  OFFSET 0 0 0
  CHANNELS 6 Xposition Yposition Zposition Zrotation Yrotation Xrotation
  JOINT abdomen
  {
    OFFSET 0 20.6881 -0.73152
    CHANNELS 3 Zrotation Xrotation Yrotation
    JOINT chest
    {
      OFFSET 0 11.7043 -0.48768
      CHANNELS 3 Zrotation Xrotation Yrotation
      JOINT neck
      {
        OFFSET 0 22.1894 -2.19456
        CHANNELS 3 Zrotation Xrotation Yrotation
        JOINT head
        {
          OFFSET -0.24384 7.07133 1.2192
          CHANNELS 3 Zrotation Xrotation Yrotation
          JOINT leftEye
          {
            OFFSET 4.14528 8.04674 8.04672
            CHANNELS 3 Zrotation Xrotation Yrotation
            End Site
            {
              OFFSET 1 0 0
            }
          }
          JOINT rightEye
          {
            OFFSET -3.6576 8.04674 8.04672
            CHANNELS 3 Zrotation Xrotation Yrotation
            End Site
            {
              OFFSET 1 0 0
            }
          }
        }
      }
      JOINT rCollar
      {
        OFFSET -2.68224 19.2634 -4.8768
        CHANNELS 3 Zrotation Xrotation Yrotation
        JOINT rShldr
        {
          OFFSET -8.77824 -1.95073 1.46304
          CHANNELS 3 Zrotation Xrotation Yrotation
          JOINT rForeArm
          {
            OFFSET -28.1742 -1.7115 0.48768
            CHANNELS 3 Zrotation Xrotation Yrotation
            JOINT rHand
            {
              OFFSET -22.5879 0.773209 7.07136
              CHANNELS 3 Zrotation Xrotation Yrotation
              JOINT rThumb1
              {
                OFFSET -1.2192 -0.487915 3.41376
                CHANNELS 3 Zrotation Xrotation Yrotation
                JOINT rThumb2
                {
                  OFFSET -3.37035 -0.52449 3.41376
                  CHANNELS 3 Zrotation Xrotation Yrotation
                  End Site
                  {
                    OFFSET -1.78271 -1.18214 1.43049
                  }
                }
              }
              JOINT rIndex1
              {
                OFFSET -7.75947 0.938293 5.60832
                CHANNELS 3 Zrotation Xrotation Yrotation
                JOINT rIndex2
                {
                  OFFSET -2.54057 -0.884171 1.56538
                  CHANNELS 3 Zrotation Xrotation Yrotation
                  End Site
                  {
                    OFFSET -1.62519 -0.234802 1.16502
                  }
                }
              }
              JOINT rMid1
              {
                OFFSET -8.24714 1.18213 3.41376
                CHANNELS 3 Zrotation Xrotation Yrotation
                JOINT rMid2
                {
                  OFFSET -3.10165 -0.590103 1.0647
                  CHANNELS 3 Zrotation Xrotation Yrotation
                  End Site
                  {
                    OFFSET -2.48547 -0.328903 0.83742
                  }
                }
              }
              JOINT rRing1
              {
                OFFSET -8.82822 0.546677 1.51678
                CHANNELS 3 Zrotation Xrotation Yrotation
                JOINT rRing2
                {
                  OFFSET -2.60934 -0.819778 -0.0198488
                  CHANNELS 3 Zrotation Xrotation Yrotation
                  End Site
                  {
                    OFFSET -2.33842 -0.294052 0.168128
                  }
                }
              }
              JOINT rPinky1
              {
                OFFSET -8.27202 -0.0477905 -0.4584
                CHANNELS 3 Zrotation Xrotation Yrotation
                JOINT rPinky2
                {
                  OFFSET -1.82734 -0.647385 -0.700984
                  CHANNELS 3 Zrotation Xrotation Yrotation
                  End Site
                  {
                    OFFSET -1.69225 -0.51767 -0.607171
                  }
                }
              }
            }
          }
        }
      }
      JOINT lCollar
      {
        OFFSET 2.68224 19.2634 -4.8768
        CHANNELS 3 Zrotation Xrotation Yrotation
        JOINT lShldr
        {
          OFFSET 8.77824 -1.95073 1.46304
          CHANNELS 3 Zrotation Xrotation Yrotation
          JOINT lForeArm
          {
            OFFSET 28.1742 -1.7115 0.48768
            CHANNELS 3 Zrotation Xrotation Yrotation
            JOINT lHand
            {
              OFFSET 22.5879 0.773209 7.07136
              CHANNELS 3 Zrotation Xrotation Yrotation
              JOINT lThumb1
              {
                OFFSET 1.2192 -0.487915 3.41376
                CHANNELS 3 Zrotation Xrotation Yrotation
                JOINT lThumb2
                {
                  OFFSET 3.37035 -0.52449 3.41376
                  CHANNELS 3 Zrotation Xrotation Yrotation
                  End Site
                  {
                    OFFSET 1.78271 -1.18214 1.43049
                  }
                }
              }
              JOINT lIndex1
              {
                OFFSET 7.75947 0.938293 5.60832
                CHANNELS 3 Zrotation Xrotation Yrotation
                JOINT lIndex2
                {
                  OFFSET 2.54057 -0.884171 1.56538
                  CHANNELS 3 Zrotation Xrotation Yrotation
                  End Site
                  {
                    OFFSET 1.62519 -0.234802 1.16502
                  }
                }
              }
              JOINT lMid1
              {
                OFFSET 8.24714 1.18213 3.41376
                CHANNELS 3 Zrotation Xrotation Yrotation
                JOINT lMid2
                {
                  OFFSET 3.10165 -0.590103 1.0647
                  CHANNELS 3 Zrotation Xrotation Yrotation
                  End Site
                  {
                    OFFSET 2.48547 -0.328903 0.83742
                  }
                }
              }
              JOINT lRing1
              {
                OFFSET 8.82822 0.546677 1.51678
                CHANNELS 3 Zrotation Xrotation Yrotation
                JOINT lRing2
                {
                  OFFSET 2.60934 -0.819778 -0.0198488
                  CHANNELS 3 Zrotation Xrotation Yrotation
                  End Site
                  {
                    OFFSET 2.33842 -0.294052 0.168128
                  }
                }
              }
              JOINT lPinky1
              {
                OFFSET 8.27202 -0.0477905 -0.4584
                CHANNELS 3 Zrotation Xrotation Yrotation
                JOINT lPinky2
                {
                  OFFSET 1.82734 -0.647385 -0.700984
                  CHANNELS 3 Zrotation Xrotation Yrotation
                  End Site
                  {
                    OFFSET 1.69225 -0.51767 -0.607171
                  }
                }
              }
            }
          }
        }
      }
    }
  }
  JOINT rButtock
  {
    OFFSET -8.77824 4.35084 1.2192
    CHANNELS 3 Zrotation Xrotation Yrotation
    JOINT rThigh
    {
      OFFSET 0 -1.70687 -2.19456
      CHANNELS 3 Zrotation Xrotation Yrotation
      JOINT rShin
      {
        OFFSET 0 -36.8199 0.73152
        CHANNELS 3 Zrotation Xrotation Yrotation
        JOINT rFoot
        {
          OFFSET 0.73152 -45.1104 -5.12064
          CHANNELS 3 Zrotation Xrotation Yrotation
          End Site
          {
            OFFSET -1.1221 -3.69964 12.103
          }
        }
      }
    }
  }
  JOINT lButtock
  {
    OFFSET 8.77824 4.35084 1.2192
    CHANNELS 3 Zrotation Xrotation Yrotation
    JOINT lThigh
    {
      OFFSET 0 -1.70687 -2.19456
      CHANNELS 3 Zrotation Xrotation Yrotation
      JOINT lShin
      {
        OFFSET 0 -36.8199 0.73152
        CHANNELS 3 Zrotation Xrotation Yrotation
        JOINT lFoot
        {
          OFFSET -0.73152 -45.1104 -5.12064
          CHANNELS 3 Zrotation Xrotation Yrotation
          End Site
          {
            OFFSET 1.1221 -3.69964 12.103
          }
        }
      }
    }
  }
}
MOTION
Frames:	4
Frame Time:	0.00833333
51.7124 76.2247 -24.6654 -9.812798 -77.912663 17.627901 -1.067487 7.621671 -115.063724 2.183021 4.575822 110.447676 8.344793 25.712562 111.979591 -37.121637 17.40863 -100.343229 0.278629 0.010095 4.149848 1.174804 -0.029793 -2.905313 -5.457704 25.629241 7.353515 90.626793 86.555057 -20.06773 -116.799523 -8.211178 -7.65659 -162.439514 -39.314272 166.203794 -78.266868 37.834511 42.458026 17.37742 -24.367672 20.179798 54.933246 -68.601498 8.952039 -169.186006 -31.299676 109.170822 88.983608 -81.418341 59.358469 -177.532013 -38.994191 143.273969 2.844165 2.661337 0.075781 -157.298135 0.860742 175.673132 7.958488 16.77476 1.835965 0.944729 -2.572315 -0.792366 -1.25851 -15.794745 3.349953 -95.504784 -2.018816 -16.374335 74.590643 -8.538523 -174.193698 -160.765475 -72.353822 -139.309815 158.096364 3.834954 -89.312906 170.568109 -11.135216 -86.085125 -0.254054 0.892058 1.122664 166.564881 -20.808461 -107.544278 12.456353 29.057366 -9.183536 -9.144357 -20.454073 -0.211158 73.863601 -72.886641 92.847673 146.041658 -47.236627 175.090858 138.070985 -9.728123 134.210541 24.504307 -33.877138 28.674052 -0.00757 0.841034 0.515706 3.278413 -41.885366 143.728224 44.080725 -53.132531 -67.42511 -93.568493 45.313281 0.699346 -0.632012 0.406818 0.817119 -6.402135 -40.759862 170.248409 -0.966356 -64.405023 -127.514554 65.349571 -45.700542 -10.299043
51.779399999999995 76.1734 -24.9025 -9.686185 -78.014342 17.345752 -1.926733 10.715531 -29.34088 7.072709 -3.994049 25.156446 6.556082 17.77955 66.750755 -30.600731 -10.489204 -63.261077 0.025452 0.000923 4.15561 1.077958 -0.024405 -2.593835 -5.191007 24.975619 7.083151 -105.498017 4.932521 -174.900062 177.51031 -19.396499 -77.138964 -21.739976 -49.983351 -15.607699 -0.352161 0.400319 1.132995 -21.285276 17.511153 19.001506 -132.180674 10.173742 112.936663 8.477442 5.13853 -9.811285 -7.768844 20.693267 5.872861 -155.684849 16.170815 142.032431 3.178199 3.532439 0.544546 -154.694745 -45.5448 -176.434339 -153.890957 41.021317 -144.634691 -146.569517 8.000377 -141.588376 -2.869051 -33.957518 6.593902 80.745694 -1.475045 179.146271 -157.46653 81.028626 -86.948333 167.206824 8.851915 -141.21185 164.505706 -2.526174 -90.478282 -16.997012 -59.715378 -17.772358 129.740121 17.64354 -109.90393 -1.2119 8.333244 7.529704 -0.897427 -1.524504 0.373204 87.032039 61.989367 -78.276511 -1.550512 -1.807904 -0.000677 154.059067 9.6416 -169.740482 -32.231301 83.180718 -4.978522 123.65025 -42.127848 116.582541 -2.082486 0.818317 -1.048487 6.63178 -41.099526 131.058179 54.496745 -42.279878 -49.098962 -65.651579 42.932093 -27.182011 -156.730751 74.301858 -18.883149 165.576257 36.276979 -0.0 -6.924236 67.938577 118.962381 -175.840655 -0.62972 81.320931
51.8134 76.0986 -25.0872 -8.704762 -78.210665 16.16801 -2.891258 10.814763 -0.0 5.339586 -7.121419 -3.998783 -13.035183 23.175587 -77.879397 40.191011 9.333347 82.394531 -0.157858 -0.00552 4.005563 0.878928 -0.016971 -2.212331 0.608093 -0.156165 -0.108327 87.8408 44.823543 -38.406312 -16.623481 -32.835117 95.930353 -33.34047 -73.210921 -38.27025 2.100606 -1.746581 0.377189 -134.951487 -32.601225 116.140169 -106.676594 34.139486 92.542114 7.460035 0.18306 -8.647972 -164.187444 -19.760395 144.24101 -44.945804 56.515829 39.401135 -69.654478 72.694461 90.666559 -71.92433 86.392475 85.349635 -149.403915 26.559569 -143.55459 -127.123021 -31.915202 -124.534413 143.506694 39.385347 -147.146063 -101.89932 -28.815086 -163.09235 -153.014798 -45.964554 -37.188003 161.564961 23.070443 -136.703225 77.750704 39.503832 -42.406125 -21.08162 -26.286356 -21.024725 10.21323 15.034483 -5.326322 161.828901 -13.08173 -108.054195 -7.117576 -21.57992 3.112748 126.989776 50.241764 -115.721103 143.85918 1.075508 179.978243 -12.280132 63.001093 2.005685 147.03627 15.319241 142.393238 30.410081 -37.225433 31.265602 -177.742041 74.939915 -2.338182 -176.529183 34.108355 173.826924 -19.888576 -68.087825 -94.716653 -42.891742 -25.245126 -113.007861 -0.006135 0.328749 1.069053 -6.556532 -37.823875 -28.052311 -33.898737 60.519921 133.075413 -98.404971 54.252418 -8.398834
51.8127 76.1168 -25.2562 -7.740651 -78.253477 15.107102 -2.844684 5.717866 -180.0 -5.258966 2.23141 175.443412 8.822987 22.15027 96.388169 -35.624847 8.101834 -87.477734 -0.363433 -0.009999 3.152021 0.903328 -0.015829 -2.007728 -151.712726 14.160672 157.785076 61.458001 -38.320705 95.061046 55.545203 0.96884 137.506676 -31.274565 7.921422 10.412003 -171.387503 -9.582333 89.545837 -4.219662 -50.90108 5.706014 12.024587 -17.691284 -4.888728 -86.339273 47.280397 67.850746 -152.728619 13.332671 138.310183 -162.831544 -7.646318 141.402649 2.977045 -0.441827 0.417911 -155.48117 -45.670137 -176.005532 -17.278357 -29.215974 -16.877464 4.328677 3.508056 -1.615535 0.574966 0.504706 -0.587669 -75.870275 28.648869 -38.233007 -1.662307 64.931496 -84.602811 9.86955 -10.25546 3.125934 7.131601 7.246645 -0.909725 13.543663 12.183732 -16.706311 -11.459966 -22.665404 6.390059 25.266296 40.910964 -22.683622 160.346939 -6.59798 -143.706147 86.38561 66.6725 -79.229123 -0.913503 -1.425357 -0.26411 155.888393 -1.705777 -171.673883 157.592743 55.446827 150.194612 152.897491 13.973019 140.289777 -177.377911 74.982775 -2.714669 -176.665727 34.180549 -180.0 0.486184 -68.913798 95.647939 167.739049 21.996991 -61.599664 -0.435515 0.214314 0.561596 -6.377098 -37.251452 -0.0 1.650432 57.811276 -29.870297 72.51128 25.546816 14.800779
